Run_20002
nRows=4
nColumns=164

# SIMM Motion File Header:
name Run_20002
datacolumns 164
datarows 4
otherdata 1
range 1.45000000 1.48000000
endheader
time	pelvis_tilt	pelvis_list	pelvis_rotation	pelvis_tx	pelvis_ty	pelvis_tz	hip_flexion_r	hip_adduction_r	hip_rotation_r	knee_angle_r	ankle_angle_r	hip_flexion_l	hip_adduction_l	hip_rotation_l	knee_angle_l	ankle_angle_l	lumbar_extension	lumbar_bending	lumbar_rotation	arm_flex_r	arm_add_r	arm_rot_r	elbow_flex_r	pro_sup_r	arm_flex_l	arm_add_l	arm_rot_l	elbow_flex_l	pro_sup_l	subtalar_angle_r	mtp_angle_r	subtalar_angle_l	mtp_angle_l	wrist_flex_r	wrist_dev_r	wrist_flex_l	wrist_dev_l	LASI_tx	LASI_ty	LASI_tz	RASI_tx	RASI_ty	RASI_tz	LPSI_tx	LPSI_ty	LPSI_tz	RPSI_tx	RPSI_ty	RPSI_tz	RTH1_tx	RTH1_ty	RTH1_tz	RTH2_tx	RTH2_ty	RTH2_tz	RTH3_tx	RTH3_ty	RTH3_tz	LTH1_tx	LTH1_ty	LTH1_tz	LTH2_tx	LTH2_ty	LTH2_tz	LTH3_tx	LTH3_ty	LTH3_tz	RTB1_tx	RTB1_ty	RTB1_tz	RTB2_tx	RTB2_ty	RTB2_tz	RTB3_tx	RTB3_ty	RTB3_tz	LTB1_tx	LTB1_ty	LTB1_tz	LTB2_tx	LTB2_ty	LTB2_tz	LTB3_tx	LTB3_ty	LTB3_tz	RCAL_tx	RCAL_ty	RCAL_tz	RTOE_tx	RTOE_ty	RTOE_tz	RMT5_tx	RMT5_ty	RMT5_tz	LCAL_tx	LCAL_ty	LCAL_tz	LTOE_tx	LTOE_ty	LTOE_tz	LMT5_tx	LMT5_ty	LMT5_tz	LACR_tx	LACR_ty	LACR_tz	RACR_tx	RACR_ty	RACR_tz	CLAV_tx	CLAV_ty	CLAV_tz	C7_tx	C7_ty	C7_tz	RUA1_tx	RUA1_ty	RUA1_tz	RUA2_tx	RUA2_ty	RUA2_tz	RUA3_tx	RUA3_ty	RUA3_tz	RLEL_tx	RLEL_ty	RLEL_tz	RMEL_tx	RMEL_ty	RMEL_tz	LUA1_tx	LUA1_ty	LUA1_tz	LUA2_tx	LUA2_ty	LUA2_tz	LUA3_tx	LUA3_ty	LUA3_tz	LLEL_tx	LLEL_ty	LLEL_tz	LMEL_tx	LMEL_ty	LMEL_tz	RFAsuperior_tx	RFAsuperior_ty	RFAsuperior_tz	RFAradius_tx	RFAradius_ty	RFAradius_tz	RFAulna_tx	RFAulna_ty	RFAulna_tz	LFAsuperior_tx	LFAsuperior_ty	LFAsuperior_tz	LFAradius_tx	LFAradius_ty	LFAradius_tz	LFAulna_tx	LFAulna_ty	LFAulna_tz
      1.45000000	    -14.79817903	      1.79286232	      0.36484986	      1.02056024	      0.97220448	     -0.35673280	     21.85535243	     -0.85307112	      3.37644332	    -73.25442898	     -4.24824276	     38.85471812	      7.66047953	     -0.45497350	    -41.00789890	     16.70861123	      2.49441079	     -2.38159626	      4.54680066	    -25.68061053	    -16.54160943	     -4.56928529	     94.23576521	    118.15835765	    -31.79815663	    -13.21283534	     -9.92656483	    112.98053375	    102.50611511	      0.00000000	      0.00000000	      0.00000000	      0.00000000	      0.00000000	      0.00000000	      0.00000000	      0.00000000	      1.06331246	      1.00099030	     -0.48329655	      1.04148905	      1.01421010	     -0.23674315	      0.87175769	      1.07894479	     -0.40861301	      0.87698129	      1.06904196	     -0.29526772	      0.97302406	      0.89126679	     -0.18931337	      0.92396708	      0.74514325	     -0.19977313	      0.96999761	      0.59416585	     -0.20766275	      0.99073079	      0.90080069	     -0.53757751	      0.97007471	      0.73697477	     -0.48404046	      1.06049570	      0.62440459	     -0.47862828	      0.88713201	      0.37647889	     -0.26877673	      0.81386704	      0.42230041	     -0.19343176	      0.70619792	      0.31534485	     -0.26454828	      1.13327463	      0.41056166	     -0.39708894	      1.03162886	      0.31892528	     -0.45049685	      1.05335864	      0.20664910	     -0.38130592	      0.54608601	      0.36930367	     -0.24688528	      0.61426795	      0.14114813	     -0.29482649	      0.57595446	      0.16457924	     -0.19830207	      0.89556125	      0.09848907	     -0.35735676	      1.13259028	      0.07470755	     -0.34278467	      1.08602778	      0.03722473	     -0.43800287	      1.01008463	      1.50399383	     -0.52245639	      1.05963331	      1.48444956	     -0.20019348	      1.10097864	      1.45218579	     -0.33708672	      0.97750877	      1.52703887	     -0.35871014	      0.94868747	      1.39688864	     -0.12821880	      0.98843268	      1.32951295	     -0.10908174	      0.92119598	      1.25673650	     -0.06448304	      0.88467406	      1.20362558	     -0.03670658	      0.86648359	      1.18269607	     -0.12226045	      0.89804676	      1.41812595	     -0.57252681	      0.91656494	      1.33670456	     -0.59553098	      0.83436015	      1.28106504	     -0.61059085	      0.80617360	      1.21898643	     -0.62865244	      0.80293997	      1.19785649	     -0.53989956	      0.96360788	      1.12762638	     -0.05307456	      1.08386228	      1.05528637	     -0.16855648	      1.06456819	      1.01700887	     -0.11467797	      0.86717945	      1.15901441	     -0.63183451	      1.04491033	      1.14222640	     -0.56301615	      1.02816259	      1.08070309	     -0.59585409
      1.46000000	    -14.69769791	      1.90786010	     -0.01838033	      1.01842436	      0.96738374	     -0.35634088	     23.86841949	     -0.76005513	      3.96604772	    -75.92735149	     -2.88566710	     38.50342910	      7.73525608	     -0.52667013	    -42.86033115	     18.94683383	      2.23701120	     -2.56348349	      4.49347240	    -25.85717153	    -16.14516927	     -5.37067921	     90.94451384	    119.90768658	    -29.40191468	    -13.26209237	     -9.09431728	    110.52753807	    103.38349762	      0.00000000	      0.00000000	      0.00000000	      0.00000000	      0.00000000	      0.00000000	      0.00000000	      0.00000000	      1.06042444	      0.99652784	     -0.48260132	      1.03866877	      1.00976180	     -0.23598775	      0.87086063	      1.07402698	     -0.40978651	      0.87442451	      1.06427762	     -0.29623888	      0.97168686	      0.88728459	     -0.18917591	      0.92701047	      0.73976675	     -0.20235501	      0.97895705	      0.59029611	     -0.20782120	      0.99110662	      0.89617098	     -0.53718615	      0.96804701	      0.73246465	     -0.48302892	      1.05717624	      0.61880134	     -0.47749212	      0.89984802	      0.37452995	     -0.26874366	      0.82734037	      0.42083257	     -0.19256895	      0.71841932	      0.31548331	     -0.26371824	      1.12521518	      0.40352128	     -0.39596395	      1.02047669	      0.31493099	     -0.44907760	      1.03765385	      0.20255319	     -0.37993495	      0.55720165	      0.37015709	     -0.24595846	      0.62796428	      0.14265011	     -0.29309087	      0.59012391	      0.16623324	     -0.19632577	      0.87583665	      0.09882352	     -0.35684517	      1.11285531	      0.07376968	     -0.34223598	      1.06630015	      0.03810291	     -0.43976058	      1.00896964	      1.49821751	     -0.52328661	      1.05771750	      1.47992748	     -0.20043042	      1.09995363	      1.44724078	     -0.33721207	      0.97630058	      1.52213052	     -0.35936654	      0.94547511	      1.39286142	     -0.12960333	      0.98453281	      1.32510249	     -0.11031643	      0.91539807	      1.25292286	     -0.06698780	      0.87780489	      1.20021501	     -0.03942179	      0.86190635	      1.17828092	     -0.12484905	      0.90029017	      1.40756575	     -0.57229502	      0.92125549	      1.32684032	     -0.59635288	      0.84177995	      1.26760131	     -0.61259985	      0.81611224	      1.20490117	     -0.63139818	      0.81145048	      1.18400210	     -0.54272017	      0.95419308	      1.12019320	     -0.05142612	      1.07266933	      1.03677652	     -0.16219330	      1.05058463	      1.00304844	     -0.10680582	      0.87729066	      1.14444273	     -0.63346351	      1.05374235	      1.12686120	     -0.56159538	      1.03737229	      1.06606824	     -0.59521257
      1.47000000	    -14.59782959	      2.16729981	     -0.53103225	      1.01623445	      0.96399360	     -0.35593495	     25.92947215	     -0.73991626	      4.69912698	    -78.20191204	     -1.55024082	     37.86172066	      7.86165448	     -0.73816238	    -44.12806345	     20.91848659	      1.95306213	     -2.86052682	      4.45605308	    -25.93051610	    -15.87826381	     -6.08324669	     87.81270366	    122.42712064	    -27.08824062	    -13.29089121	     -8.32093562	    108.12306137	    104.62755018	      0.00000000	      0.00000000	      0.00000000	      0.00000000	      0.00000000	      0.00000000	      0.00000000	      0.00000000	      1.05738806	      0.99368044	     -0.48144199	      1.03569996	      1.00692961	     -0.23476924	      0.87011325	      1.07079148	     -0.41130591	      0.87194173	      1.06084342	     -0.29780809	      0.96907060	      0.88384375	     -0.18953824	      0.93022081	      0.73565705	     -0.20464988	      0.98814978	      0.58765575	     -0.20810554	      0.99149275	      0.89289367	     -0.53687072	      0.96501945	      0.72953529	     -0.48298705	      1.05253568	      0.61425890	     -0.47685207	      0.91352880	      0.37379273	     -0.26880349	      0.84118249	      0.41984959	     -0.19204521	      0.73184666	      0.31535270	     -0.26332618	      1.11559312	      0.39761253	     -0.39489878	      1.00866332	      0.31180388	     -0.44810809	      1.02143472	      0.19949288	     -0.37877290	      0.56900071	      0.36961466	     -0.24547577	      0.64414473	      0.14332119	     -0.29158593	      0.60640930	      0.16682305	     -0.19458742	      0.85602135	      0.09925427	     -0.35651506	      1.09299625	      0.07332278	     -0.34180215	      1.04671303	      0.03927068	     -0.44180668	      1.00858241	      1.49381574	     -0.52400283	      1.05568239	      1.47650700	     -0.20060712	      1.09881920	      1.44344937	     -0.33720700	      0.97485774	      1.51825559	     -0.36014081	      0.94209654	      1.38990223	     -0.13106989	      0.98052448	      1.32204734	     -0.11127116	      0.90958547	      1.25079258	     -0.06910909	      0.87125040	      1.19840215	     -0.04167012	      0.85753991	      1.17522010	     -0.12696205	      0.90259482	      1.39884485	     -0.57102420	      0.92589180	      1.31944906	     -0.59738229	      0.84952056	      1.25665866	     -0.61452755	      0.82706065	      1.19303257	     -0.63385844	      0.82013531	      1.17234272	     -0.54522870	      0.94511696	      1.11487608	     -0.04981956	      1.06047029	      1.02034664	     -0.15581593	      1.03650260	      0.99180465	     -0.09882108	      0.88860429	      1.13266925	     -0.63487600	      1.06313728	      1.11302627	     -0.55939491	      1.04701767	      1.05304003	     -0.59440982
      1.48000000	    -14.62608780	      2.55764008	     -1.03474483	      1.01421068	      0.96172785	     -0.35572906	     28.12875095	     -0.87313099	      5.39631965	    -80.05688865	     -0.32199641	     37.10224194	      8.11719584	     -1.04562195	    -44.89558147	     22.33072828	      1.82392037	     -3.26194573	      4.22331401	    -26.00666624	    -15.80145921	     -6.61062961	     85.02730027	    125.34372735	    -25.13344865	    -13.25507440	     -7.77198434	    106.09853733	    105.67317937	      0.00000000	      0.00000000	      0.00000000	      0.00000000	      0.00000000	      0.00000000	      0.00000000	      0.00000000	      1.05464599	      0.99184336	     -0.48018755	      1.03302523	      1.00510862	     -0.23345612	      0.86947675	      1.06919527	     -0.41275019	      0.86995847	      1.05867407	     -0.29967717	      0.96578317	      0.88110416	     -0.19010469	      0.93366464	      0.73293726	     -0.20631737	      0.99749430	      0.58631035	     -0.20826527	      0.99146738	      0.89097066	     -0.53687507	      0.96135563	      0.72797388	     -0.48395986	      1.04692231	      0.61090277	     -0.47672463	      0.92815182	      0.37423964	     -0.26868257	      0.85523144	      0.41939061	     -0.19187377	      0.74620796	      0.31494526	     -0.26331135	      1.10462910	      0.39313201	     -0.39395758	      0.99600356	      0.31002255	     -0.44765348	      1.00478448	      0.19763478	     -0.37820527	      0.58143720	      0.36763235	     -0.24544260	      0.66246493	      0.14305622	     -0.29027280	      0.62431887	      0.16632752	     -0.19312398	      0.83624902	      0.09987652	     -0.35641497	      1.07314738	      0.07304301	     -0.34158954	      1.02675624	      0.03951145	     -0.44218002	      1.00920171	      1.49074591	     -0.52473612	      1.05343600	      1.47418761	     -0.20078000	      1.09763534	      1.44113901	     -0.33702855	      0.97357761	      1.51589314	     -0.36122644	      0.93844237	      1.38806188	     -0.13255559	      0.97616451	      1.32042928	     -0.11183020	      0.90349059	      1.25030314	     -0.07072640	      0.86463681	      1.19843760	     -0.04319119	      0.85285258	      1.17384390	     -0.12844764	      0.90529303	      1.39226018	     -0.57028147	      0.93081309	      1.31419105	     -0.59839658	      0.85721608	      1.24852981	     -0.61614141	      0.83798687	      1.18404538	     -0.63593259	      0.82868540	      1.16339763	     -0.54736558	      0.93594559	      1.11183139	     -0.04797817	      1.04746360	      1.00690558	     -0.14950496	      1.02245979	      0.98356987	     -0.09090775	      0.90014692	      1.12422155	     -0.63602235	      1.07264989	      1.10204985	     -0.55685882	      1.05678753	      1.04250420	     -0.59309463
